<svg width="32" height="32" viewBox="0 0 32 32" fill="none" xmlns="http://www.w3.org/2000/svg">
<g clip-path="url(#clip0_70_1290)">
<path d="M16 0C7.16344 0 0 7.16344 0 16C0 24.8366 7.16344 32 16 32C24.8366 32 32 24.8366 32 16C32 7.16344 24.8366 0 16 0ZM11.2386 4.611C13.0679 3.84456 15.0856 3.53125 17.0736 3.70475C19.3675 3.90506 21.5364 4.7365 23.3573 6.08969L23.3398 4.93288L25.2145 4.90456L25.2774 9.06506L21.1204 9.44363L20.9503 7.57631L22.0728 7.47412C20.5638 6.39819 18.7865 5.7365 16.9105 5.57269C13.5543 5.27962 10.2404 6.63419 8.04519 9.19619L6.62138 7.97619C7.87238 6.51613 9.469 5.3525 11.2386 4.611ZM21.7242 11.6691L18.6899 20.3309H17.1359L20.1703 11.6691H21.7242ZM10.9014 18.1793V16.9931L13.7886 12.9748H15.6736L13.0531 16.7356H14.3588V15.6414H16.0783V16.7356H17.0345V18.1793H16.0783V19.4114H14.3036V18.1793H10.9014ZM7.45281 14.3173C6.98388 14.3173 6.56088 14.5288 6.30344 14.9426L4.95175 14.1886C5.43912 13.3794 6.34937 12.8461 7.61831 12.8461C9.09875 12.8461 10.1194 13.6092 10.1194 14.8046C10.1194 15.4299 9.94469 16 9.02512 16.8459L7.81138 17.9678H10.2941V19.4114H5.28281V18.2712L7.69194 16.0184C8.20687 15.5403 8.28044 15.246 8.28044 14.9793C8.28044 14.5656 8.00456 14.3173 7.45281 14.3173ZM20.7614 27.389C19.2603 28.0179 17.6322 28.3418 15.9978 28.3418C15.6405 28.3418 15.283 28.3264 14.9264 28.2952C12.6325 28.0949 10.4636 27.2634 8.64281 25.9103L8.66025 27.0671L6.7855 27.0954L6.72262 22.9349L10.8796 22.5564L11.0497 24.4236L9.92719 24.5259C11.4363 25.6018 13.2135 26.2635 15.0895 26.4273C18.4458 26.7205 21.7596 25.3658 23.9548 22.8038L25.3786 24.0238C24.1276 25.4838 22.531 26.6475 20.7614 27.389ZM27.0482 14.115L24.7771 19.4114H22.7909L24.9609 14.4184H23.2691V15.4115H21.7151V12.9748H27.0482V14.115Z" fill="#007B5E"/>
</g>
<defs>
<clipPath id="clip0_70_1290">
<rect width="32" height="32" fill="white"/>
</clipPath>
</defs>
</svg>
