<svg width="45" height="52" viewBox="0 0 45 52" fill="none" xmlns="http://www.w3.org/2000/svg">
<path d="M26.9283 1.85715L1.54736 15.4762V22.9048L26.9283 9.28573L43.0236 16.7143V9.28573L26.9283 1.85715Z" fill="#111827" stroke="#111827"/>
<path d="M26.9283 11.7619L1.54736 25.381V32.8096L26.9283 19.1905L37.0653 23.8334L43.0236 20.6238V19.1905L41.2415 18.368L26.9283 11.7619Z" fill="#D4AF37" stroke="#D4AF37"/>
<path d="M26.9283 21.6667L1.54736 35.2858V42.7143L26.9283 29.0953L34.5426 25.1829L26.9283 21.6667Z" fill="#111827" stroke="#111827"/>
<path d="M23.277 47.2479H3.71452V46.461L43.0819 25.4133V23.1524L1.54785 45.2229V48.9372C4.96893 48.8393 8.63055 48.7903 12.5327 48.7903C16.4349 48.7413 20.15 48.7169 23.6779 48.7169H30.0925C32.4445 48.7169 34.7965 48.7413 37.1484 48.7903C39.5004 48.7903 41.6653 48.8393 43.6431 48.9372C43.3759 46.5869 43.2155 44.3345 43.1621 42.1801C43.1086 40.0257 43.0819 38.3609 43.0819 37.1858C43.0819 34.4927 43.1621 32.2893 43.3224 30.5756H41.4782C41.1041 33.7583 40.2488 36.4268 38.9124 38.5812C37.5761 40.6867 35.9992 42.376 34.1817 43.649C32.3643 44.9221 30.4934 45.8524 28.569 46.44C26.6981 46.9786 24.9341 47.2479 23.277 47.2479Z" fill="#D4AF37" stroke="#D4AF37"/>
</svg>
