<svg width="32" height="32" viewBox="0 0 32 32" fill="none" xmlns="http://www.w3.org/2000/svg">
<path d="M19.6488 3.30291L18.2107 4.70959L18.5507 6.69629C18.6057 7.02029 18.3575 7.31963 18.0247 7.31963C17.8441 7.31963 17.9379 7.3437 16 6.32095L14.224 7.2583C13.834 7.46417 13.3755 7.13243 13.4493 6.69629L13.7893 4.70959L12.3513 3.30291C12.0348 2.99357 12.2121 2.45716 12.6473 2.39356L14.6327 2.10422L15.5214 0.297529C15.7167 -0.0988764 16.2831 -0.0994764 16.4787 0.297529L17.3674 2.10422L19.3528 2.39356C19.7888 2.45729 19.9646 2.99424 19.6488 3.30291ZM10.435 6.03235L10.372 5.66501C10.6186 5.4246 10.8949 5.23087 10.7738 4.85813C10.6527 4.48559 10.3128 4.49072 9.97442 4.44152L9.80948 4.10732C9.61428 3.71171 9.04834 3.71145 8.85293 4.10732L8.688 4.44152C8.34719 4.49106 8.00972 4.48532 7.88865 4.85813C7.76758 5.23067 8.04566 5.42634 8.29046 5.66501L8.22746 6.03235C8.15292 6.46709 8.61053 6.79996 9.00134 6.59455L9.33114 6.42109C9.66881 6.59869 9.74248 6.65582 9.90908 6.65582C10.2382 6.65582 10.4911 6.35942 10.435 6.03235ZM5.76822 8.69905L5.70522 8.33171C5.95182 8.09131 6.22816 7.89757 6.10703 7.52484C5.98596 7.1523 5.64602 7.15743 5.30768 7.10823L5.14275 6.77402C4.94754 6.37842 4.3816 6.37815 4.1862 6.77402L4.02126 7.10823C3.68046 7.15776 3.34299 7.15203 3.22192 7.52484C3.10085 7.89737 3.37892 8.09304 3.62372 8.33171L3.56072 8.69905C3.48619 9.13379 3.94379 9.46666 4.3346 9.26126L4.66441 9.08779C5.00208 9.26539 5.07574 9.32253 5.24235 9.32253C5.57142 9.32253 5.82436 9.02612 5.76822 8.69905ZM23.7724 6.03235L23.7094 5.66501C23.956 5.4246 24.2324 5.23087 24.1112 4.85813C23.9902 4.48559 23.6502 4.49072 23.3119 4.44152C23.1594 4.13252 23.0607 3.81005 22.6687 3.81005C22.2771 3.81005 22.1769 4.13492 22.0255 4.44152L21.6567 4.49512C21.2202 4.55859 21.045 5.09673 21.3611 5.40487L21.628 5.66501C21.5697 6.00461 21.4601 6.32362 21.7772 6.55395C22.0941 6.78422 22.3661 6.58022 22.6687 6.42109C23.0064 6.59869 23.0801 6.65582 23.2467 6.65582C23.5756 6.65582 23.8285 6.35942 23.7724 6.03235ZM28.4392 8.69905L28.3762 8.33171C28.6228 8.09131 28.8991 7.89757 28.778 7.52484C28.6569 7.1523 28.3169 7.15743 27.9786 7.10823C27.8261 6.79922 27.7274 6.47675 27.3355 6.47675C26.9438 6.47675 26.8436 6.80162 26.6923 7.10823L26.3235 7.16183C25.8869 7.2253 25.7118 7.76344 26.0278 8.07158L26.2947 8.33171C26.2365 8.67132 26.1268 8.99032 26.4439 9.22066C26.7608 9.45093 27.0328 9.24693 27.3355 9.08779C27.6731 9.26539 27.7468 9.32253 27.9134 9.32253C28.2423 9.32253 28.4952 9.02612 28.4392 8.69905ZM8.14386 31.4515C8.15299 31.7519 7.91132 32 7.61071 32H4.79981C3.62159 32 2.66644 31.0448 2.66644 29.8666V19.1998C2.66644 18.0216 3.62159 17.0664 4.79981 17.0664H7.59985C7.89439 17.0664 8.13319 17.3058 8.13319 17.6003C8.13259 27.6445 8.11579 30.5312 8.14386 31.4515ZM6.33316 22.3999C6.33316 22.1053 6.09436 21.8665 5.79982 21.8665C5.50528 21.8665 5.26648 22.1053 5.26648 22.3999V24.6666C5.26648 24.9611 5.50528 25.1999 5.79982 25.1999C6.09436 25.1999 6.33316 24.9611 6.33316 24.6666V22.3999ZM29.3335 19.1998V29.8666C29.3335 31.0448 28.3784 32 27.2001 32H24.3897C24.0892 32 23.8474 31.7518 23.8566 31.4514C23.8848 30.5328 23.8674 27.6503 23.8668 17.6003C23.8668 17.3058 24.1056 17.0664 24.4001 17.0664H27.2001C28.3784 17.0664 29.3335 18.0216 29.3335 19.1998ZM26.7335 22.3999C26.7335 22.1053 26.4947 21.8665 26.2001 21.8665C25.9056 21.8665 25.6668 22.1053 25.6668 22.3999V24.6666C25.6668 24.9611 25.9056 25.1999 26.2001 25.1999C26.4947 25.1999 26.7335 24.9611 26.7335 24.6666V22.3999ZM14.6666 32H17.3333C17.6279 32 17.8667 31.7612 17.8667 31.4667V26.4666C17.8667 26.172 17.6279 25.9332 17.3333 25.9332H14.6666C14.3721 25.9332 14.1333 26.172 14.1333 26.4666V31.4667C14.1333 31.7612 14.3721 32 14.6666 32ZM22.8001 11.5997V31.4667C22.8001 31.7612 22.5613 32 22.2667 32H19.4667C19.1721 32 18.9333 31.7612 18.9333 31.4667V25.3999C18.9333 25.1054 18.6945 24.8666 18.4 24.8666H13.5999C13.3054 24.8666 13.0666 25.1054 13.0666 25.3999V31.4667C13.0666 31.7612 12.8278 32 12.5333 32H9.73321C9.43867 32 9.19987 31.7612 9.19987 31.4667V11.5997C9.19987 10.4215 10.155 9.46633 11.3332 9.46633H20.6667C21.845 9.46633 22.8001 10.4215 22.8001 11.5997ZM18.6667 20.5332C18.6667 20.2386 18.4279 19.9998 18.1333 19.9998H13.8666C13.5721 19.9998 13.3333 20.2386 13.3333 20.5332C13.3333 20.8277 13.5721 21.0665 13.8666 21.0665H18.1333C18.4279 21.0665 18.6667 20.8277 18.6667 20.5332ZM19.6 15.3997C19.6 15.1052 19.3612 14.8664 19.0667 14.8664H12.9333C12.6387 14.8664 12.3999 15.1052 12.3999 15.3997C12.3999 15.6943 12.6387 15.9331 12.9333 15.9331H19.0667C19.3613 15.9331 19.6 15.6943 19.6 15.3997Z" fill="#007B5E"/>
</svg>
