<svg width="32" height="32" viewBox="0 0 32 32" fill="none" xmlns="http://www.w3.org/2000/svg">
<path d="M18.3125 1.14282L2.9375 9.52378V14.0952L18.3125 5.71425L28.0625 10.2857V5.71425L18.3125 1.14282Z" fill="#007B5E" stroke="#007B5E"/>
<path d="M18.3125 13.3333L2.9375 21.7142V26.2856L18.3125 17.9047L22.925 15.4971L18.3125 13.3333Z" fill="#007B5E" stroke="#007B5E"/>
<path d="M16.1004 29.0755H4.25V28.5913L28.0975 15.6389V14.2476L2.9375 27.8294V30.1151C5.00988 30.0548 7.22798 30.0247 9.59179 30.0247C11.9556 29.9946 14.2061 29.9795 16.3432 29.9795H20.2289C21.6537 29.9795 23.0785 29.9946 24.5032 30.0247C25.928 30.0247 27.2394 30.0548 28.4375 30.1151C28.2756 28.6688 28.1785 27.2827 28.1461 25.9569C28.1137 24.6311 28.0975 23.6066 28.0975 22.8835C28.0975 21.2262 28.1461 19.8703 28.2432 18.8157H27.1261C26.8994 20.7742 26.3813 22.4164 25.5718 23.7422C24.7623 25.0379 23.807 26.0774 22.7061 26.8609C21.6051 27.6443 20.4718 28.2168 19.3061 28.5784C18.1727 28.9098 17.1042 29.0755 16.1004 29.0755Z" fill="#007B5E" stroke="#007B5E"/>
</svg>
