<svg width="36" height="36" viewBox="0 0 36 36" fill="none" xmlns="http://www.w3.org/2000/svg">
<rect width="36" height="36" rx="10" fill="white"/>
<path d="M19.0281 8.00099C19.7578 7.99819 20.4876 8.00552 21.2171 8.02299L21.4111 8.02999C21.6351 8.03799 21.8561 8.04799 22.1231 8.05999C23.1871 8.10999 23.9131 8.27799 24.5501 8.52499C25.2101 8.77899 25.7661 9.12299 26.3221 9.67899C26.8305 10.1786 27.2239 10.7829 27.4751 11.45C27.7221 12.087 27.8901 12.814 27.9401 13.878C27.9521 14.144 27.9621 14.366 27.9701 14.59L27.9761 14.784C27.9939 15.5132 28.0015 16.2426 27.9991 16.972L28.0001 17.718V19.028C28.0026 19.7577 27.9949 20.4875 27.9771 21.217L27.9711 21.411C27.9631 21.635 27.9531 21.856 27.9411 22.123C27.8911 23.187 27.7211 23.913 27.4751 24.55C27.2247 25.2177 26.8312 25.8226 26.3221 26.322C25.8221 26.8303 25.2174 27.2237 24.5501 27.475C23.9131 27.722 23.1871 27.89 22.1231 27.94C21.8561 27.952 21.6351 27.962 21.4111 27.97L21.2171 27.976C20.4876 27.9938 19.7578 28.0014 19.0281 27.999L18.2821 28H16.9731C16.2434 28.0025 15.5136 27.9948 14.7841 27.977L14.5901 27.971C14.3527 27.9624 14.1154 27.9524 13.8781 27.941C12.8141 27.891 12.0881 27.721 11.4501 27.475C10.7828 27.2243 10.1783 26.8308 9.67909 26.322C9.17013 25.8223 8.77631 25.2175 8.52509 24.55C8.27809 23.913 8.11009 23.187 8.06009 22.123C8.04895 21.8857 8.03895 21.6484 8.03009 21.411L8.02509 21.217C8.00665 20.4875 7.99832 19.7577 8.00009 19.028V16.972C7.9973 16.2426 8.00463 15.5132 8.02209 14.784L8.02909 14.59C8.03709 14.366 8.04709 14.144 8.05909 13.878C8.10909 12.813 8.27709 12.088 8.52409 11.45C8.77546 10.7826 9.17005 10.1784 9.68009 9.67999C10.179 9.17074 10.7831 8.77656 11.4501 8.52499C12.0881 8.27799 12.8131 8.10999 13.8781 8.05999L14.5901 8.02999L14.7841 8.02499C15.5133 8.00656 16.2427 7.99823 16.9721 7.99999L19.0281 8.00099ZM18.0001 13.001C17.3376 12.9916 16.6798 13.114 16.0651 13.3611C15.4503 13.6081 14.8907 13.9749 14.4189 14.44C13.9471 14.9052 13.5725 15.4595 13.3168 16.0707C13.0611 16.682 12.9294 17.3379 12.9294 18.0005C12.9294 18.663 13.0611 19.319 13.3168 19.9302C13.5725 20.5414 13.9471 21.0958 14.4189 21.5609C14.8907 22.0261 15.4503 22.3929 16.0651 22.6399C16.6798 22.887 17.3376 23.0094 18.0001 23C19.3262 23 20.5979 22.4732 21.5356 21.5355C22.4733 20.5978 23.0001 19.3261 23.0001 18C23.0001 16.6739 22.4733 15.4021 21.5356 14.4645C20.5979 13.5268 19.3262 13.001 18.0001 13.001ZM18.0001 15.001C18.3986 14.9936 18.7946 15.0658 19.1649 15.2132C19.5352 15.3606 19.8724 15.5803 20.1569 15.8595C20.4413 16.1387 20.6673 16.4718 20.8215 16.8393C20.9758 17.2068 21.0553 17.6014 21.0554 18C21.0554 18.3986 20.9761 18.7931 20.8219 19.1607C20.6678 19.5283 20.4419 19.8614 20.1576 20.1407C19.8732 20.42 19.5361 20.6399 19.1658 20.7874C18.7955 20.9349 18.3996 21.0072 18.0011 21C17.2054 21 16.4424 20.6839 15.8798 20.1213C15.3172 19.5587 15.0011 18.7956 15.0011 18C15.0011 17.2043 15.3172 16.4413 15.8798 15.8787C16.4424 15.3161 17.2054 15 18.0011 15L18.0001 15.001ZM23.2501 11.501C22.9275 11.5139 22.6224 11.6511 22.3987 11.884C22.175 12.1168 22.0501 12.4271 22.0501 12.75C22.0501 13.0729 22.175 13.3832 22.3987 13.616C22.6224 13.8488 22.9275 13.9861 23.2501 13.999C23.5816 13.999 23.8996 13.8673 24.134 13.6329C24.3684 13.3984 24.5001 13.0805 24.5001 12.749C24.5001 12.4175 24.3684 12.0995 24.134 11.8651C23.8996 11.6307 23.5816 11.499 23.2501 11.499V11.501Z" fill="#007B5E"/>
</svg>
