<svg width="33" height="32" viewBox="0 0 33 32" fill="none" xmlns="http://www.w3.org/2000/svg">
<path d="M28.6665 13.3333C28.6665 22.6666 16.6665 30.6666 16.6665 30.6666C16.6665 30.6666 4.6665 22.6666 4.6665 13.3333C4.6665 10.1507 5.93079 7.09847 8.18122 4.84803C10.4317 2.59759 13.4839 1.33331 16.6665 1.33331C19.8491 1.33331 22.9013 2.59759 25.1518 4.84803C27.4022 7.09847 28.6665 10.1507 28.6665 13.3333Z" stroke="#111827" stroke-width="2" stroke-linecap="round" stroke-linejoin="round"/>
<path d="M16.6665 17.3333C18.8756 17.3333 20.6665 15.5425 20.6665 13.3333C20.6665 11.1242 18.8756 9.33334 16.6665 9.33334C14.4574 9.33334 12.6665 11.1242 12.6665 13.3333C12.6665 15.5425 14.4574 17.3333 16.6665 17.3333Z" stroke="#111827" stroke-width="2" stroke-linecap="round" stroke-linejoin="round"/>
</svg>
