<svg width="33" height="32" viewBox="0 0 33 32" fill="none" xmlns="http://www.w3.org/2000/svg">
<path d="M29.9999 22.56V26.56C30.0014 26.9313 29.9254 27.2989 29.7766 27.6391C29.6278 27.9794 29.4096 28.2848 29.136 28.5358C28.8624 28.7869 28.5393 28.978 28.1876 29.0969C27.8358 29.2159 27.4631 29.2601 27.0932 29.2267C22.9904 28.7809 19.0492 27.3789 15.5866 25.1333C12.365 23.0862 9.63369 20.3549 7.58658 17.1333C5.33322 13.6549 3.9309 9.69466 3.49324 5.57333C3.45992 5.20462 3.50374 4.83301 3.62191 4.48216C3.74008 4.13132 3.93001 3.80892 4.1796 3.53549C4.42919 3.26207 4.73298 3.04361 5.07163 2.89403C5.41028 2.74444 5.77637 2.66701 6.14658 2.66666H10.1466C10.7937 2.6603 11.421 2.88944 11.9116 3.31137C12.4022 3.73331 12.7227 4.31926 12.8132 4.96C12.9821 6.24009 13.2952 7.49697 13.7466 8.70666C13.926 9.1839 13.9648 9.70255 13.8585 10.2012C13.7521 10.6998 13.5051 11.1575 13.1466 11.52L11.4532 13.2133C13.3513 16.5514 16.1152 19.3153 19.4532 21.2133L21.1466 19.52C21.5091 19.1615 21.9668 18.9145 22.4654 18.8081C22.964 18.7018 23.4827 18.7406 23.9599 18.92C25.1696 19.3714 26.4265 19.6845 27.7066 19.8533C28.3543 19.9447 28.9458 20.2709 29.3686 20.77C29.7915 21.269 30.0161 21.9061 29.9999 22.56Z" stroke="#111827" stroke-width="2" stroke-linecap="round" stroke-linejoin="round"/>
</svg>
