<svg width="32" height="32" viewBox="0 0 32 32" fill="none" xmlns="http://www.w3.org/2000/svg">
<path d="M26.2965 9.656C27.1985 8.754 27.779 7.6115 27.9755 6.3505C28.0765 5.7005 27.868 5.0615 27.4025 4.5965C26.9375 4.1315 26.2975 3.9235 25.6495 4.0245C24.389 4.221 23.246 4.801 22.344 5.703L19.5545 8.4925L17.8845 8.129C18.1695 7.6965 18.122 7.1075 17.742 6.727C17.307 6.293 16.6005 6.2925 16.1655 6.727L15.322 7.5705L13.343 7.1395L13.481 7.0015C13.9155 6.567 13.915 5.8595 13.481 5.4255C13.0615 5.0045 12.327 5.004 11.905 5.4255L10.755 6.5755L6.65901 5.6835C6.33701 5.613 6.00451 5.711 5.77001 5.9445L4.94551 6.769C4.72901 6.9855 4.62901 7.284 4.67201 7.5875C4.71501 7.891 4.89351 8.15 5.16201 8.2985L14.7815 13.6125L9.91201 18.9405L4.96651 19.2035L4.20051 19.969C4.03651 20.1335 3.96751 20.368 4.01601 20.5955C4.06501 20.823 4.22351 21.008 4.44051 21.0905L9.12201 22.8785L10.9105 27.5605C10.9935 27.7775 11.1785 27.9365 11.406 27.985C11.454 27.995 11.5025 28 11.55 28C11.729 28 11.902 27.9295 12.0325 27.7995L12.7975 27.0345L13.0605 22.0885L18.3885 17.219L23.699 26.835C23.847 27.1035 24.106 27.282 24.4095 27.325C24.713 27.367 25.0115 27.268 25.228 27.0515L26.053 26.227C26.2865 25.9935 26.384 25.6615 26.314 25.3385L25.4235 21.2465L26.575 20.0955C26.7855 19.885 26.9015 19.605 26.9015 19.307C26.9015 19.009 26.7855 18.729 26.575 18.5185C26.14 18.0845 25.4335 18.084 24.9985 18.5185L24.86 18.657L24.4295 16.678L25.2735 15.834C25.484 15.6235 25.6 15.3435 25.6 15.0455C25.6 14.7475 25.484 14.4675 25.274 14.2575C24.9065 13.89 24.3 13.8435 23.872 14.117L23.508 12.4445L26.2975 9.655L26.2965 9.656Z" fill="#007B5E"/>
</svg>
