<svg width="32" height="32" viewBox="0 0 32 32" fill="none" xmlns="http://www.w3.org/2000/svg">
<g clip-path="url(#clip0_70_1294)">
<path d="M23.2544 16.2412V16.5469C23.2262 18.1213 22.7563 18.9081 21.8444 18.9081C21.1763 18.9081 20.7175 18.6531 20.4688 18.1437V14.5256C20.695 14.0388 21.1481 13.795 21.8275 13.795C22.7787 13.795 23.2544 14.6106 23.2544 16.2412ZM11.2369 10.8737H9.35125V14.2794H11.2369C11.8031 14.2794 12.2294 14.1306 12.515 13.8325C12.8006 13.5344 12.9438 13.1187 12.9438 12.585C12.9438 12.0513 12.7994 11.6331 12.5106 11.3294C12.2219 11.0256 11.7975 10.8737 11.2369 10.8737ZM32 16C32 24.8363 24.8363 32 16 32C7.16375 32 0 24.8363 0 16C0 7.16375 7.16375 0 16 0C24.8363 0 32 7.16313 32 16ZM16.3412 20.8194L13.7594 15.8263C14.5012 15.4756 15.0462 15.0175 15.3944 14.4519C15.7425 13.8862 15.9169 13.1737 15.9169 12.3138C15.9169 11.1263 15.5037 10.2069 14.6769 9.55625C13.85 8.90562 12.7037 8.58062 11.2369 8.58062H6.37063V20.9463H9.35188V16.5725H10.9656L13.1481 20.9463H16.3412V20.8188V20.8194ZM26.1169 16.2844C26.1169 14.8237 25.8025 13.6756 25.1744 12.8406C24.5456 12.0056 23.6656 11.5881 22.5331 11.5881C21.6381 11.5881 20.9163 11.9281 20.3675 12.6075L20.2825 11.7581H17.6069V24.4806H20.4688V20.1919C21.0125 20.8094 21.7056 21.1175 22.5494 21.1175C23.6419 21.1175 24.51 20.6912 25.1525 19.8394C25.795 18.9875 26.1162 17.8475 26.1162 16.4206V16.285L26.1169 16.2844Z" fill="#007B5E"/>
</g>
<defs>
<clipPath id="clip0_70_1294">
<rect width="32" height="32" fill="white"/>
</clipPath>
</defs>
</svg>
