<svg width="32" height="32" viewBox="0 0 32 32" fill="none" xmlns="http://www.w3.org/2000/svg">
<g clip-path="url(#clip0_70_1293)">
<path d="M27.3137 4.68631C24.2917 1.66431 20.2738 0 16 0C11.7262 0 7.70825 1.66431 4.68625 4.68631C1.66425 7.70831 0 11.7262 0 16C0 20.2738 1.66425 24.2917 4.68625 27.3137C7.70825 30.3356 11.7262 32 16 32C20.2738 32 24.2917 30.3357 27.3137 27.3137C30.3357 24.2917 32 20.2738 32 16C32 11.7262 30.3357 7.70825 27.3137 4.68631ZM16 28.8595C8.90919 28.8595 3.1405 23.0907 3.1405 16C3.1405 15.9884 3.14088 15.9769 3.14094 15.9654C3.14094 15.9624 3.1405 15.9596 3.1405 15.9567C3.1405 15.9518 3.14112 15.947 3.14125 15.9421C3.17244 8.93631 8.83412 3.2365 15.8252 3.14275C15.8399 3.14206 15.8544 3.14056 15.8692 3.14056C15.8781 3.14056 15.8867 3.14162 15.8955 3.14188C15.9304 3.14162 15.9651 3.14056 16.0001 3.14056C23.0909 3.14056 28.8596 8.90931 28.8596 16.0001C28.8596 23.0908 23.0908 28.8595 16 28.8595Z" fill="#007B5E"/>
<path d="M25.7679 16.7724C25.245 16.7724 24.8212 16.3485 24.8212 15.8256C24.8212 15.3028 25.245 14.8789 25.7679 14.8789H26.9091C26.3731 9.62415 22.1115 5.45558 16.8158 5.06421V6.05765C16.8158 6.58052 16.392 7.0044 15.8691 7.0044C15.3462 7.0044 14.9223 6.58052 14.9223 6.05765V5.08683C9.7051 5.59808 5.54929 9.78071 5.0791 15.0097H6.1011C6.62398 15.0097 7.04785 15.4336 7.04785 15.9565C7.04785 16.4793 6.62398 16.9032 6.1011 16.9032H5.07135C5.50666 22.2164 9.74579 26.4685 15.0532 26.9246V25.7244C15.0532 25.2015 15.4771 24.7776 16 24.7776C16.5229 24.7776 16.9467 25.2015 16.9467 25.7244V26.9246C22.2976 26.4648 26.5625 22.1464 26.9384 16.7724H25.7679ZM19.8325 13.5063L16.6695 16.6693C16.4919 16.8469 16.2512 16.9466 16 16.9466C15.749 16.9466 15.5081 16.8469 15.3306 16.6693L9.82479 11.1635C9.45504 10.7938 9.45504 10.1944 9.82479 9.82465C10.1945 9.4549 10.7939 9.4549 11.1637 9.82465L16.0001 14.661L18.4937 12.1674C18.8634 11.7976 19.4628 11.7976 19.8326 12.1674C20.2022 12.5371 20.2022 13.1366 19.8325 13.5063Z" fill="#007B5E"/>
</g>
<defs>
<clipPath id="clip0_70_1293">
<rect width="32" height="32" fill="white"/>
</clipPath>
</defs>
</svg>
