<svg width="36" height="36" viewBox="0 0 36 36" fill="none" xmlns="http://www.w3.org/2000/svg">
<rect width="36" height="36" rx="10" fill="white"/>
<path d="M28.2121 11.656C27.449 11.9936 26.6397 12.2154 25.8111 12.314C26.6842 11.7911 27.3374 10.9687 27.6491 9.99999C26.8291 10.488 25.9301 10.83 24.9941 11.015C24.3647 10.3416 23.5305 9.89495 22.6211 9.74457C21.7117 9.59419 20.7781 9.74848 19.9654 10.1834C19.1527 10.6184 18.5065 11.3097 18.1272 12.1498C17.748 12.9899 17.6569 13.9318 17.8681 14.829C16.2051 14.7458 14.5781 14.3137 13.0929 13.5609C11.6076 12.808 10.2974 11.7512 9.24713 10.459C8.87542 11.0974 8.68008 11.8232 8.68113 12.562C8.68113 14.012 9.42012 15.293 10.5411 16.043C9.87714 16.022 9.22777 15.8427 8.64713 15.52V15.571C8.64709 16.5369 8.98116 17.473 9.59266 18.2207C10.2042 18.9683 11.0554 19.4814 12.0021 19.673C11.3858 19.8402 10.7394 19.8648 10.1121 19.745C10.379 20.5764 10.8993 21.3035 11.6001 21.8244C12.3009 22.3453 13.1471 22.634 14.0201 22.65C13.1525 23.3314 12.159 23.8352 11.0965 24.1324C10.0341 24.4295 8.92341 24.5144 7.82812 24.382C9.73985 25.6114 11.9652 26.2641 14.2381 26.262C21.9321 26.262 26.1381 19.889 26.1381 14.362C26.1381 14.182 26.1341 14 26.1261 13.821C26.9445 13.2293 27.6509 12.4955 28.2121 11.656Z" fill="#007B5E"/>
</svg>
