<svg width="32" height="32" viewBox="0 0 32 32" fill="none" xmlns="http://www.w3.org/2000/svg">
<path d="M22 2.99999C21.9971 2.765 21.939 2.53396 21.8305 2.32552C21.7219 2.11708 21.5659 1.93707 21.375 1.79999C21.1798 1.65657 20.9527 1.56255 20.7133 1.52598C20.4738 1.48941 20.2291 1.51138 20 1.58999L10.235 4.99999H22V2.99999Z" fill="#007B5E"/>
<path d="M16.5 19.75C16.74 19.75 17.405 18.55 17.5 16.25H15.5C15.595 18.55 16.26 19.75 16.5 19.75Z" fill="#007B5E"/>
<path d="M16.5 11.75C16.26 11.75 15.595 12.95 15.5 15.25H17.5C17.405 12.95 16.74 11.75 16.5 11.75Z" fill="#007B5E"/>
<path d="M15.12 19.5C14.7267 18.4607 14.5169 17.3611 14.5 16.25H12.535C12.6271 16.9764 12.9169 17.6637 13.3727 18.2367C13.8285 18.8098 14.4329 19.2468 15.12 19.5Z" fill="#007B5E"/>
<path d="M15.12 12C14.4329 12.2532 13.8285 12.6902 13.3727 13.2633C12.9169 13.8363 12.6271 14.5236 12.535 15.25H14.5C14.5169 14.1389 14.7267 13.0393 15.12 12Z" fill="#007B5E"/>
<path d="M7 7.5V29.5C7 29.8978 7.15804 30.2794 7.43934 30.5607C7.72064 30.842 8.10218 31 8.5 31H24.5C24.8978 31 25.2794 30.842 25.5607 30.5607C25.842 30.2794 26 29.8978 26 29.5V7.5C26 7.10218 25.842 6.72064 25.5607 6.43934C25.2794 6.15804 24.8978 6 24.5 6H8.5C8.10218 6 7.72064 6.15804 7.43934 6.43934C7.15804 6.72064 7 7.10218 7 7.5ZM20.5 26.25H12.5C12.3674 26.25 12.2402 26.1973 12.1464 26.1036C12.0527 26.0098 12 25.8826 12 25.75C12 25.6174 12.0527 25.4902 12.1464 25.3964C12.2402 25.3027 12.3674 25.25 12.5 25.25H20.5C20.6326 25.25 20.7598 25.3027 20.8536 25.3964C20.9473 25.4902 21 25.6174 21 25.75C21 25.8826 20.9473 26.0098 20.8536 26.1036C20.7598 26.1973 20.6326 26.25 20.5 26.25ZM14 24.25C14 24.1174 14.0527 23.9902 14.1464 23.8964C14.2402 23.8027 14.3674 23.75 14.5 23.75H18.5C18.6326 23.75 18.7598 23.8027 18.8536 23.8964C18.9473 23.9902 19 24.1174 19 24.25C19 24.3826 18.9473 24.5098 18.8536 24.6036C18.7598 24.6973 18.6326 24.75 18.5 24.75H14.5C14.3674 24.75 14.2402 24.6973 14.1464 24.6036C14.0527 24.5098 14 24.3826 14 24.25ZM16.5 10.75C17.4889 10.75 18.4556 11.0432 19.2779 11.5927C20.1001 12.1421 20.741 12.923 21.1194 13.8366C21.4978 14.7502 21.5969 15.7555 21.4039 16.7255C21.211 17.6954 20.7348 18.5863 20.0355 19.2855C19.3363 19.9848 18.4454 20.461 17.4755 20.6539C16.5055 20.8469 15.5002 20.7478 14.5866 20.3694C13.673 19.991 12.8921 19.3501 12.3427 18.5279C11.7932 17.7056 11.5 16.7389 11.5 15.75C11.5 14.4239 12.0268 13.1521 12.9645 12.2145C13.9021 11.2768 15.1739 10.75 16.5 10.75Z" fill="#007B5E"/>
<path d="M20.465 15.25C20.3729 14.5236 20.0831 13.8363 19.6273 13.2633C19.1715 12.6902 18.5671 12.2532 17.88 12C18.2733 13.0393 18.4831 14.1389 18.5 15.25H20.465Z" fill="#007B5E"/>
<path d="M20.465 16.25H18.5C18.4831 17.3611 18.2733 18.4607 17.88 19.5C18.5671 19.2468 19.1715 18.8098 19.6273 18.2367C20.0831 17.6637 20.3729 16.9764 20.465 16.25Z" fill="#007B5E"/>
</svg>
