<svg width="32" height="32" viewBox="0 0 32 32" fill="none" xmlns="http://www.w3.org/2000/svg">
<g clip-path="url(#clip0_70_1292)">
<path d="M23.5312 0.00292969C18.8616 0.00292969 15.0625 3.80199 15.0625 8.47168C15.4882 19.6912 31.5759 19.6881 32 8.47155C32 3.80199 28.2009 0.00292969 23.5312 0.00292969ZM26.0416 9.40918H23.5312C23.2826 9.40918 23.0442 9.31037 22.8684 9.13455L20.3836 6.64974C20.0174 6.28362 20.0174 5.69005 20.3836 5.32393C20.7496 4.9578 21.3433 4.9578 21.7094 5.32393L23.9196 7.53412H26.0417C27.2842 7.58024 27.2832 9.36349 26.0416 9.40918Z" fill="#007B5E"/>
<path d="M11.5694 12.5052C10.367 11.8112 8.96639 11.6267 7.62546 11.9858C7.35396 12.0586 7.09208 12.1529 6.84033 12.2654C7.43483 12.9128 7.87783 13.7009 8.11071 14.5699L8.81733 17.2069H13.1137L12.0068 13.0749C11.99 13.0125 11.9033 12.698 11.5694 12.5052Z" fill="#007B5E"/>
<path d="M18.8125 22.0945V23.9695C19.4029 23.9695 19.8833 24.4499 19.8833 25.0403V31.0653C19.9294 32.3079 21.7126 32.3069 21.7583 31.0653V25.0403C21.7583 23.416 20.4368 22.0945 18.8125 22.0945Z" fill="#007B5E"/>
<path d="M16 19.0821H7.37862L6.29956 15.0554C5.97144 13.8308 5.01181 12.8492 3.79581 12.494C2.57956 12.1377 1.24212 12.4474 0.305561 13.3022C0.0764363 13.5113 -0.0344387 13.8202 0.00943632 14.1272L2.00831 28.1195V31.0654C2.05444 32.308 3.83762 32.3071 3.88331 31.0654V28.9904H15.0625V31.0654C15.1086 32.308 16.8918 32.3071 16.9375 31.0654V20.0196C16.9375 19.5019 16.5177 19.0821 16 19.0821Z" fill="#007B5E"/>
<path d="M8.97084 9.93204C10.601 9.93204 11.9271 8.60585 11.9271 6.97579C11.7785 3.05929 6.16259 3.06035 6.01459 6.97585C6.01459 8.60585 7.34078 9.93204 8.97084 9.93204Z" fill="#007B5E"/>
</g>
<defs>
<clipPath id="clip0_70_1292">
<rect width="32" height="32" fill="white"/>
</clipPath>
</defs>
</svg>
